<svg width="24" height="25" viewBox="0 0 24 25" fill="none" xmlns="http://www.w3.org/2000/svg">
<g id="angle-right-square">
<path id="angle-right-square_2" d="M17.625 3.5H6.375C4.125 3.5 3 4.625 3 6.875V18.125C3 20.375 4.125 21.5 6.375 21.5H17.625C19.875 21.5 21 20.375 21 18.125V6.875C21 4.625 19.875 3.5 17.625 3.5ZM14.53 13.03L11.53 16.03C11.384 16.176 11.192 16.25 11 16.25C10.808 16.25 10.616 16.177 10.47 16.03C10.177 15.737 10.177 15.262 10.47 14.969L12.9399 12.499L10.47 10.0291C10.177 9.73605 10.177 9.26102 10.47 8.96802C10.763 8.67502 11.238 8.67502 11.531 8.96802L14.531 11.968C14.823 12.263 14.823 12.737 14.53 13.03Z" fill="#6B7280"/>
</g>
</svg>
