<svg xmlns="http://www.w3.org/2000/svg" width="24" height="24" viewBox="0 0 24 24" fill="none">
<path d="M12 21.7499C11.012 21.7499 10.124 21.2369 9.62202 20.3779C9.41402 20.0199 9.534 19.5609 9.892 19.3519C10.248 19.1439 10.708 19.2639 10.918 19.6219C11.377 20.4089 12.623 20.4089 13.082 19.6219C13.291 19.2639 13.751 19.1439 14.108 19.3519C14.466 19.5599 14.587 20.0199 14.378 20.3779C13.876 21.2369 12.988 21.7499 12 21.7499ZM20.675 18.3249C20.8 18.0649 20.765 17.7569 20.586 17.5319C20.567 17.5089 18.745 15.1889 18.745 12.4999V8.9949C18.745 5.2759 15.719 2.2499 12 2.2499C8.28101 2.2499 5.25501 5.2759 5.25501 8.9949V12.4999C5.25501 15.1889 3.43301 17.5089 3.41401 17.5319C3.23501 17.7569 3.20002 18.0659 3.32502 18.3249C3.45002 18.5839 3.71201 18.7499 4.00001 18.7499H20C20.288 18.7499 20.55 18.5839 20.675 18.3249ZM6.75501 12.4999V8.9949C6.75501 6.1029 9.10801 3.7499 12 3.7499C14.892 3.7499 17.245 6.1029 17.245 8.9949V12.4999C17.245 14.4359 17.995 16.1579 18.613 17.2499H5.38599C6.00499 16.1579 6.75501 14.4359 6.75501 12.4999ZM3.74601 8.0749C3.91701 6.3659 4.60702 4.7829 5.74302 3.4969C6.01702 3.1859 5.98701 2.71191 5.67701 2.43791C5.36601 2.16291 4.89202 2.1929 4.61802 2.5039C3.27402 4.0269 2.456 5.9019 2.254 7.9259C2.212 8.3379 2.51299 8.7059 2.92499 8.7469C2.94999 8.7489 2.97601 8.75091 3.00101 8.75091C3.38101 8.74991 3.70801 8.4609 3.74601 8.0749ZM21.075 8.74591C21.487 8.70491 21.788 8.33691 21.746 7.92491C21.544 5.90191 20.726 4.02691 19.382 2.50291C19.109 2.19291 18.634 2.1619 18.323 2.4369C18.012 2.7109 17.983 3.18491 18.257 3.49591C19.392 4.78191 20.083 6.36491 20.254 8.07391C20.293 8.46091 20.619 8.7489 20.999 8.7489C21.024 8.7499 21.049 8.74891 21.075 8.74591Z" fill="#0F0F0F"/>
</svg>