<svg xmlns="http://www.w3.org/2000/svg" width="24" height="25" viewBox="0 0 24 25" fill="none">
<path d="M18 3.82935H16.75V3.07935C16.75 2.66535 16.414 2.32935 16 2.32935C15.586 2.32935 15.25 2.66535 15.25 3.07935V3.82935H8.75V3.07935C8.75 2.66535 8.414 2.32935 8 2.32935C7.586 2.32935 7.25 2.66535 7.25 3.07935V3.82935H6C3.582 3.82935 2.25 5.16135 2.25 7.57935V18.0793C2.25 20.4973 3.582 21.8293 6 21.8293H18C20.418 21.8293 21.75 20.4973 21.75 18.0793V7.57935C21.75 5.16135 20.418 3.82935 18 3.82935ZM6 5.32935H7.25V6.07935C7.25 6.49335 7.586 6.82935 8 6.82935C8.414 6.82935 8.75 6.49335 8.75 6.07935V5.32935H15.25V6.07935C15.25 6.49335 15.586 6.82935 16 6.82935C16.414 6.82935 16.75 6.49335 16.75 6.07935V5.32935H18C19.577 5.32935 20.25 6.00235 20.25 7.57935V8.32935H3.75V7.57935C3.75 6.00235 4.423 5.32935 6 5.32935ZM18 20.3293H6C4.423 20.3293 3.75 19.6563 3.75 18.0793V9.82935H20.25V18.0793C20.25 19.6563 19.577 20.3293 18 20.3293ZM13.551 11.0793C13.546 11.0793 13.5421 11.0793 13.5381 11.0793C12.8771 11.0793 12.369 11.3352 12 11.6672C11.629 11.3332 11.133 11.0803 10.449 11.0793C9.60897 11.0833 8.90389 11.4034 8.41089 12.0054C7.82889 12.7174 7.61608 13.7463 7.83008 14.8293C8.35508 17.4923 11.5581 18.9534 11.6931 19.0144C11.7911 19.0574 11.895 19.0793 12 19.0793C12.105 19.0793 12.2089 19.0574 12.3069 19.0144C12.4429 18.9534 15.6449 17.4923 16.1689 14.8293C16.3829 13.7463 16.1721 12.7183 15.5901 12.0063C15.0981 11.4033 14.393 11.0833 13.551 11.0793ZM14.698 14.5383C14.401 16.0423 12.705 17.1053 12 17.4883C11.295 17.1053 9.599 16.0423 9.302 14.5383C9.177 13.9063 9.279 13.3143 9.573 12.9553C9.779 12.7043 10.068 12.5813 10.458 12.5793C10.459 12.5793 10.4599 12.5793 10.4619 12.5793C11.0409 12.5793 11.27 13.1554 11.291 13.2124C11.393 13.5134 11.6749 13.7123 11.9929 13.7163C11.9959 13.7163 11.9989 13.7163 12.0029 13.7163C12.3159 13.7163 12.6 13.5155 12.708 13.2205C12.732 13.1545 12.961 12.5784 13.54 12.5784C13.542 12.5784 13.5429 12.5784 13.5439 12.5784C13.9349 12.5804 14.2249 12.7033 14.4299 12.9543C14.7219 13.3143 14.822 13.9063 14.698 14.5383Z" fill="#9CA3AF"/>
</svg>