<svg width="20" height="20" viewBox="0 0 20 20" fill="none" xmlns="http://www.w3.org/2000/svg">
<path d="M10.0007 0.832031C4.94065 0.832031 0.833984 4.9387 0.833984 9.9987C0.833984 15.0587 4.94065 19.1654 10.0007 19.1654C15.0607 19.1654 19.1673 15.0587 19.1673 9.9987C19.1673 4.9387 15.0607 0.832031 10.0007 0.832031ZM13.6948 8.34871L9.41397 12.6204C9.28564 12.7579 9.11147 12.822 8.92814 12.822C8.75397 12.822 8.57981 12.7579 8.44231 12.6204L6.30649 10.4846C6.04065 10.2187 6.04065 9.77867 6.30649 9.51284C6.57232 9.247 7.01232 9.247 7.27815 9.51284L8.92814 11.1629L12.7232 7.37704C12.989 7.10204 13.429 7.10204 13.6948 7.37704C13.9606 7.64288 13.9606 8.07371 13.6948 8.34871Z" fill="#7C3AED"/>
</svg>
