<svg width="16" height="16" viewBox="0 0 16 16" fill="none" xmlns="http://www.w3.org/2000/svg">
<path fill-rule="evenodd" clip-rule="evenodd" d="M10.1933 2.51561C9.01147 1.98901 7.69106 1.85856 6.42902 2.1437C5.16698 2.42884 4.03091 3.1143 3.19027 4.09785C2.34963 5.08141 1.84944 6.31035 1.76431 7.6014C1.67918 8.89245 2.01366 10.1764 2.71788 11.2619C3.4221 12.3473 4.45831 13.176 5.67199 13.6244C6.88566 14.0728 8.21176 14.1168 9.45252 13.75C10.6933 13.3831 11.7822 12.625 12.5569 11.5887C13.3316 10.5524 13.7506 9.29346 13.7513 7.99961V7.38666C13.7513 7.01847 14.0498 6.71999 14.418 6.71999C14.7862 6.71999 15.0846 7.01847 15.0846 7.38666V7.99999C15.0837 9.58137 14.5717 11.1205 13.6248 12.387C12.678 13.6536 11.347 14.5802 9.83056 15.0286C8.31409 15.4769 6.69329 15.4231 5.20991 14.8751C3.72654 14.327 2.46005 13.3142 1.59934 11.9876C0.738631 10.6609 0.329816 9.09162 0.433865 7.51367C0.537915 5.93572 1.14925 4.43368 2.17671 3.23156C3.20416 2.02944 4.59268 1.19165 6.13517 0.843146C7.67767 0.49464 9.2915 0.654086 10.736 1.29771C11.0723 1.44756 11.2234 1.84168 11.0736 2.17799C10.9237 2.51431 10.5296 2.66546 10.1933 2.51561Z" fill="#F9FAFB"/>
<path fill-rule="evenodd" clip-rule="evenodd" d="M14.8891 2.19502C15.1496 2.45524 15.1498 2.87735 14.8896 3.13783L8.22295 9.81116C8.09794 9.93629 7.92834 10.0066 7.75147 10.0067C7.5746 10.0067 7.40497 9.93646 7.2799 9.8114L5.2799 7.8114C5.01955 7.55105 5.01955 7.12894 5.2799 6.86859C5.54025 6.60824 5.96236 6.60824 6.22271 6.86859L7.75107 8.39695L13.9463 2.19549C14.2066 1.93501 14.6287 1.9348 14.8891 2.19502Z" fill="#F9FAFB"/>
</svg>
