<svg width="24" height="25" viewBox="0 0 24 25" fill="none" xmlns="http://www.w3.org/2000/svg">
<path d="M19.9005 19.5006C19.9515 19.8036 19.7175 20.0806 19.4105 20.0806H4.59054C4.28254 20.0806 4.04849 19.8036 4.10049 19.5006L4.50851 17.0806C4.53251 16.9366 4.65753 16.8306 4.80453 16.8306H19.1975C19.3435 16.8306 19.4685 16.9366 19.4935 17.0806L19.9005 19.5006ZM19.4905 7.61057L16.9905 9.12058C16.5385 9.39358 15.9515 9.26156 15.6605 8.82056L12.8215 4.52158C12.4335 3.93358 11.5705 3.93257 11.1805 4.52057L8.34054 8.81058C8.05054 9.26058 7.46051 9.39057 7.00051 9.11057L4.51052 7.61057C3.77052 7.16057 2.85053 7.80058 3.02053 8.65058L4.46749 15.0966C4.49849 15.2336 4.61952 15.3306 4.76052 15.3306H19.2405C19.3805 15.3306 19.5025 15.2336 19.5335 15.0966L20.9805 8.65058C21.1505 7.80058 20.2305 7.16057 19.4905 7.61057Z" fill="#4ADE80"/>
</svg>
