<svg width="20" height="20" viewBox="0 0 20 20" fill="none" xmlns="http://www.w3.org/2000/svg">
<g id="share-2">
<g id="Icon">
<path fill-rule="evenodd" clip-rule="evenodd" d="M13.3334 4.16732C13.3334 3.24684 14.0796 2.50065 15.0001 2.50065C15.9206 2.50065 16.6667 3.24684 16.6667 4.16732C16.6667 5.08779 15.9206 5.83398 15.0001 5.83398C14.4021 5.83398 13.8778 5.51911 13.5837 5.04613C13.5767 5.03251 13.5693 5.019 13.5615 5.00563C13.5536 4.99215 13.5454 4.97898 13.537 4.96611C13.4072 4.72893 13.3334 4.45674 13.3334 4.16732ZM11.7915 5.07372L12.4217 4.70591C12.8057 4.4818 13.295 4.59945 13.537 4.96611C13.5518 4.99325 13.5674 5.01993 13.5837 5.04613C13.7841 5.43716 13.6459 5.92122 13.2618 6.14539L12.6318 6.51303C12.2401 6.1176 11.9468 5.62459 11.7915 5.07372ZM7.36836 7.65494L11.7915 5.07372C11.7102 4.78553 11.6667 4.4815 11.6667 4.16732C11.6667 2.32637 13.1591 0.833984 15.0001 0.833984C16.841 0.833984 18.3334 2.32637 18.3334 4.16732C18.3334 6.00827 16.841 7.50065 15.0001 7.50065C14.0739 7.50065 13.2359 7.12289 12.6318 6.51303L8.2087 9.09425C8.0534 8.54338 7.76005 8.05037 7.36836 7.65494ZM6.4165 9.12184C6.21603 8.73081 6.35427 8.24674 6.73839 8.02258L7.36836 7.65494C6.76428 7.04508 5.9263 6.66732 5.00008 6.66732C3.15913 6.66732 1.66675 8.1597 1.66675 10.0007C1.66675 11.8416 3.15913 13.334 5.00008 13.334C5.92647 13.334 6.76459 12.9561 7.3687 12.346L11.7925 14.9239C11.7106 15.2132 11.6667 15.5185 11.6667 15.834C11.6667 17.6749 13.1591 19.1673 15.0001 19.1673C16.841 19.1673 18.3334 17.6749 18.3334 15.834C18.3334 13.993 16.841 12.5007 15.0001 12.5007C14.0753 12.5007 13.2384 12.8773 12.6345 13.4855L8.20883 10.9066C8.29 10.6185 8.33342 10.3147 8.33342 10.0007C8.33342 9.68647 8.28995 9.38244 8.2087 9.09425L7.57844 9.46206C7.19441 9.68616 6.70512 9.56852 6.46321 9.20185C6.44836 9.17472 6.43278 9.14804 6.4165 9.12184ZM6.4165 10.8794C6.21593 11.2707 6.35442 11.755 6.73885 11.979L7.3687 12.346C7.76033 11.9505 8.05361 11.4575 8.20883 10.9066L7.57798 10.539C7.19397 10.3152 6.70498 10.433 6.46321 10.7994C6.59298 10.5623 6.66675 10.2901 6.66675 10.0007C6.66675 9.71123 6.59298 9.43904 6.46321 9.20185C6.45472 9.18899 6.44654 9.17582 6.43868 9.16234C6.43087 9.14896 6.42348 9.13546 6.4165 9.12184C6.12241 8.64886 5.59802 8.33398 5.00008 8.33398C4.07961 8.33398 3.33341 9.08018 3.33341 10.0007C3.33341 10.9211 4.07961 11.6673 5.00008 11.6673C5.59802 11.6673 6.12242 11.3524 6.4165 10.8794ZM6.4165 10.8794C6.43279 10.8533 6.44837 10.8266 6.46321 10.7994C6.45463 10.8125 6.44635 10.8258 6.43841 10.8394C6.4307 10.8526 6.4234 10.866 6.4165 10.8794ZM13.6148 14.9069C13.7809 14.5249 13.6384 14.0705 13.2696 13.8556L12.6345 13.4855C12.2424 13.8805 11.9484 14.3732 11.7925 14.9239L12.4305 15.2957C12.798 15.5098 13.2617 15.4111 13.5128 15.081C13.3981 15.3072 13.3334 15.563 13.3334 15.834C13.3334 16.7545 14.0796 17.5006 15.0001 17.5006C15.9206 17.5006 16.6667 16.7545 16.6667 15.834C16.6667 14.9135 15.9206 14.1673 15.0001 14.1673C14.4227 14.1673 13.9139 14.4609 13.6148 14.9069ZM13.6148 14.9069C13.6018 14.9369 13.5869 14.9663 13.5701 14.9952C13.5525 15.0253 13.5334 15.054 13.5128 15.081C13.5433 15.0208 13.5774 14.9627 13.6148 14.9069Z" fill="#F9FAFB"/>
<path d="M6.46321 9.20185C6.70512 9.56852 7.19441 9.68616 7.57844 9.46206L8.2087 9.09425C8.0534 8.54338 7.76005 8.05037 7.36836 7.65494L6.73839 8.02258C6.35427 8.24674 6.21603 8.73081 6.4165 9.12184C6.43278 9.14804 6.44836 9.17472 6.46321 9.20185Z" fill="#F9FAFB"/>
<path d="M6.4165 10.8794C6.21593 11.2707 6.35442 11.755 6.73885 11.979L7.3687 12.346C7.76033 11.9505 8.05361 11.4575 8.20883 10.9066L7.57798 10.539C7.19397 10.3152 6.70498 10.433 6.46321 10.7994C6.44837 10.8266 6.43279 10.8533 6.4165 10.8794Z" fill="#F9FAFB"/>
<path d="M13.6148 14.9069C13.7809 14.5249 13.6384 14.0705 13.2696 13.8556L12.6345 13.4855C12.2424 13.8805 11.9484 14.3732 11.7925 14.9239L12.4305 15.2957C12.798 15.5098 13.2617 15.4111 13.5128 15.081C13.5433 15.0208 13.5774 14.9627 13.6148 14.9069Z" fill="#F9FAFB"/>
<path d="M12.4217 4.70591L11.7915 5.07372C11.9468 5.62459 12.2401 6.1176 12.6318 6.51303L13.2618 6.14539C13.6459 5.92122 13.7841 5.43716 13.5837 5.04613C13.5674 5.01993 13.5518 4.99325 13.537 4.96611C13.295 4.59945 12.8057 4.4818 12.4217 4.70591Z" fill="#F9FAFB"/>
</g>
</g>
</svg>
