<svg width="24" height="25" viewBox="0 0 24 25" fill="none" xmlns="http://www.w3.org/2000/svg">
<path d="M12 2.08008C6.48 2.08008 2 6.56008 2 12.0801C2 17.6001 6.48 22.0801 12 22.0801C17.52 22.0801 22 17.6001 22 12.0801C22 6.56008 17.52 2.08008 12 2.08008ZM15 8.33008C15.72 8.33008 16.25 9.07008 16.25 10.0801C16.25 11.0901 15.72 11.8301 15 11.8301C14.28 11.8301 13.75 11.0901 13.75 10.0801C13.75 9.07008 14.28 8.33008 15 8.33008ZM9 8.33008C9.72 8.33008 10.25 9.07008 10.25 10.0801C10.25 11.0901 9.72 11.8301 9 11.8301C8.28 11.8301 7.75 11.0901 7.75 10.0801C7.75 9.07008 8.28 8.33008 9 8.33008ZM16.6 15.5301C15.49 16.9901 13.82 17.8301 12 17.8301C10.18 17.8301 8.49 16.9701 7.41 15.5301C7.16 15.2001 7.23 14.7301 7.56 14.4801C7.89 14.2301 8.36 14.3001 8.61 14.6301C9.41 15.6901 10.68 16.3301 12 16.3301C13.32 16.3301 14.58 15.7101 15.4 14.6301C15.65 14.3001 16.12 14.2401 16.45 14.4901C16.78 14.7401 16.84 15.2101 16.59 15.5401L16.6 15.5301Z" fill="#F9FAFB"/>
</svg>
