<svg width="13" height="16" viewBox="0 0 13 16" fill="none" xmlns="http://www.w3.org/2000/svg">
<path d="M8.2915 3V1.125L12.0415 4.875H10.1665C8.84984 4.875 8.2915 4.31667 8.2915 3ZM12.6665 6.125V13C12.6665 14.6667 11.8332 15.5 10.1665 15.5H2.6665C0.999837 15.5 0.166504 14.6667 0.166504 13V3C0.166504 1.33333 0.999837 0.5 2.6665 0.5H7.0415V3C7.0415 5.01667 8.14984 6.125 10.1665 6.125H12.6665ZM8.24308 10.2608C8.21142 10.1842 8.16569 10.115 8.10819 10.0575L6.44153 8.39083C6.19736 8.14666 5.8015 8.14666 5.55733 8.39083C5.31317 8.63499 5.31317 9.03083 5.55733 9.275L6.15731 9.875H3.49984C3.15484 9.875 2.87484 10.155 2.87484 10.5C2.87484 10.845 3.15484 11.125 3.49984 11.125H6.15731L5.55733 11.725C5.31317 11.9692 5.31317 12.365 5.55733 12.6092C5.679 12.7308 5.83902 12.7925 5.99902 12.7925C6.15902 12.7925 6.31905 12.7317 6.44071 12.6092L8.10738 10.9425C8.16488 10.885 8.2106 10.8158 8.24227 10.7392C8.30644 10.5858 8.30642 10.4142 8.24308 10.2608Z" fill="#F9FAFB"/>
</svg>
