<svg width="25" height="24" viewBox="0 0 25 24" fill="none" xmlns="http://www.w3.org/2000/svg">
<g id="file-plus">
<path id="Icon" fill-rule="evenodd" clip-rule="evenodd" d="M6.5 1C5.70435 1 4.94129 1.31607 4.37868 1.87868C3.81607 2.44129 3.5 3.20435 3.5 4V20C3.5 20.7957 3.81607 21.5587 4.37868 22.1213C4.94129 22.6839 5.70435 23 6.5 23H18.5C19.2956 23 20.0587 22.6839 20.6213 22.1213C21.1839 21.5587 21.5 20.7957 21.5 20V9C21.5 8.73478 21.3946 8.48043 21.2071 8.29289L14.2071 1.29289C14.0196 1.10536 13.7652 1 13.5 1H6.5ZM5.79289 3.29289C5.98043 3.10536 6.23478 3 6.5 3H12.5V9C12.5 9.55228 12.9477 10 13.5 10H19.5V20C19.5 20.2652 19.3946 20.5196 19.2071 20.7071C19.0196 20.8946 18.7652 21 18.5 21H6.5C6.23478 21 5.98043 20.8946 5.79289 20.7071C5.60536 20.5196 5.5 20.2652 5.5 20V4C5.5 3.73478 5.60536 3.48043 5.79289 3.29289ZM18.0858 8L14.5 4.41421V8H18.0858ZM12.5 11C13.0523 11 13.5 11.4477 13.5 12V14H15.5C16.0523 14 16.5 14.4477 16.5 15C16.5 15.5523 16.0523 16 15.5 16H13.5V18C13.5 18.5523 13.0523 19 12.5 19C11.9477 19 11.5 18.5523 11.5 18V16H9.5C8.94772 16 8.5 15.5523 8.5 15C8.5 14.4477 8.94772 14 9.5 14H11.5V12C11.5 11.4477 11.9477 11 12.5 11Z" fill="#ffffff"/>
</g>
</svg>
