<svg width="20" height="20" viewBox="0 0 20 20" fill="none" xmlns="http://www.w3.org/2000/svg">
<g id="filter-check">
<path id="filter-check_2" d="M11.56 14.594C11.6267 14.6398 11.6667 14.7131 11.6667 14.794V17.5015L8.33337 15.0015V11.6698C8.33337 11.3381 8.20176 11.0198 7.96676 10.7848L3.69999 6.51814C3.46499 6.28314 3.33337 5.96479 3.33337 5.63313V3.75146C3.33337 3.06146 3.89337 2.50146 4.58337 2.50146H15.4167C16.1067 2.50146 16.6667 3.06146 16.6667 3.75146V5.63481C16.6667 5.96814 16.5334 6.2848 16.3001 6.51814L16.25 6.56814C16.2 6.61814 16.1417 6.64313 16.0751 6.64313C16.0417 6.64313 16.0084 6.63481 15.9751 6.62647C15.1084 6.24314 14.0917 6.1348 13.0501 6.3848C11.3501 6.79313 10 8.2098 9.66669 9.92647C9.30002 11.8606 10.1425 13.619 11.56 14.594ZM17.5 10.8348C17.5 12.6765 16.0084 14.1681 14.1667 14.1681C12.325 14.1681 10.8334 12.6765 10.8334 10.8348C10.8334 8.99313 12.325 7.50146 14.1667 7.50146C16.0084 7.50146 17.5 8.99313 17.5 10.8348ZM15.5 9.84313C15.3417 9.6848 15.0751 9.6848 14.9167 9.84313L13.8167 10.9431L13.4167 10.5431C13.2584 10.3765 12.9917 10.3765 12.8334 10.5431C12.6667 10.7015 12.6667 10.9681 12.8334 11.1265L13.525 11.8265C13.6 11.9015 13.7083 11.9431 13.8167 11.9431C13.9333 11.9431 14.0333 11.9015 14.1167 11.8265L15.5 10.4348C15.6667 10.2765 15.6667 10.0098 15.5 9.84313Z" fill="#F9FAFB"/>
</g>
</svg>
