<svg width="20" height="20" viewBox="0 0 20 20" fill="none" xmlns="http://www.w3.org/2000/svg">
<g id="globe-earth">
<path id="globe-earth_2" d="M10 1.04297C5.06001 1.04297 1.04167 5.06214 1.04167 10.0013C1.04167 14.9405 5.06001 18.9596 10 18.9596C14.94 18.9596 18.9583 14.9405 18.9583 10.0013C18.9583 5.06214 14.94 1.04297 10 1.04297ZM2.29167 10.0013C2.29167 9.11297 2.44999 8.26296 2.72833 7.46796C3.24499 11.2263 6.54167 11.5438 6.68417 12.143C6.8425 12.818 6.68418 13.018 6.74251 14.1763C6.80084 15.3346 8.40083 15.3513 9.01749 16.268C9.19916 16.5346 9.30419 17.1055 9.25919 17.6721C5.35502 17.298 2.29167 14.0013 2.29167 10.0013ZM12.0917 17.4138C12.6592 15.6363 14.3633 15.0338 14.5366 14.0063C14.6758 13.1821 13.5925 12.7605 12.62 12.6405C11.6567 12.5296 11.7958 11.5205 11.1108 10.8071C10.4258 10.0938 9.9775 10.1346 9.015 10.2546C8.0425 10.3655 7.22749 10.2963 6.95832 9.70381C6.69915 9.11131 7.0325 8.82797 6.32416 8.0938C5.73416 7.48213 6.36749 6.93381 6.68249 6.85964C7.18249 6.73965 8.07165 7.61379 8.59248 7.50713C10.1617 7.18379 8.28166 4.11296 10.6383 3.34046C11.0508 3.20546 11.4366 2.87715 11.6308 2.47048C12.9775 2.76215 14.1892 3.4088 15.1742 4.3038C15.445 5.07463 15.6333 5.95965 15.4758 6.42881C15.1608 7.40131 14.37 8.10047 15.2334 9.69213C16.1342 11.3538 16.69 11.5796 17.095 11.123C17.2558 10.9413 17.465 10.813 17.6733 10.7355C17.3675 13.933 15.1008 16.563 12.0917 17.4138Z" fill="#9CA3AF"/>
</g>
</svg>
