<svg xmlns="http://www.w3.org/2000/svg" width="24" height="25" viewBox="0 0 24 25" fill="none">
<path d="M17.053 21.8293H6.94805C5.37705 21.8293 4.03205 20.7073 3.75005 19.1623L2.2951 11.1793C2.1171 10.1983 2.48408 9.19534 3.25408 8.56234L9.93609 3.0693C11.1331 2.0853 12.8701 2.0853 14.0671 3.0693L20.7491 8.56234C21.5191 9.19534 21.8861 10.1983 21.7081 11.1793L20.2531 19.1623C19.9691 20.7073 18.624 21.8293 17.053 21.8293ZM12.0001 3.83029C11.6041 3.83029 11.21 3.96226 10.888 4.22726L4.20611 9.7203C3.85511 10.0083 3.68807 10.4644 3.77007 10.9104L5.22503 18.8923C5.37603 19.7243 6.10107 20.3283 6.94707 20.3283H17.0521C17.8981 20.3283 18.6221 19.7243 18.7741 18.8923L20.2291 10.9093C20.3101 10.4633 20.143 10.0083 19.793 9.7203L13.111 4.22726C12.79 3.96326 12.3961 3.83029 12.0001 3.83029ZM19.513 19.0273H19.523H19.513ZM14.7501 17.0793C14.7501 16.6653 14.4141 16.3293 14.0001 16.3293H10.0001C9.58605 16.3293 9.25005 16.6653 9.25005 17.0793C9.25005 17.4933 9.58605 17.8293 10.0001 17.8293H14.0001C14.4141 17.8293 14.7501 17.4933 14.7501 17.0793Z" fill="#FAFAFA"/>
</svg>