<svg width="23" height="20" viewBox="0 0 23 20" fill="none" xmlns="http://www.w3.org/2000/svg">
<g id="Layer_1" clip-path="url(#clip0_10419_133914)">
<path id="Vector" d="M22.068 11.4599C22.068 11.6705 21.9199 11.7974 21.6572 11.8128C20.8545 11.8603 20.0718 12.0057 19.3293 12.3237C17.4549 13.126 16.4257 14.5755 16.0846 16.5523C16.0151 16.9912 15.9792 17.4347 15.9773 17.8791C15.9736 18.0689 15.9551 18.2655 15.7386 18.3493C15.4822 18.4485 15.248 18.2727 15.2425 17.9719C15.2321 17.3455 15.1805 16.7235 15.0364 16.1147C14.4883 13.7936 12.8109 12.2644 10.416 11.9065C10.1334 11.8639 9.84799 11.8363 9.56261 11.8159C9.25776 11.7951 9.09967 11.6719 9.10465 11.4323C9.10963 11.2085 9.29037 11.0699 9.58164 11.0599C10.4733 11.0304 11.3488 10.8144 12.1518 10.4257C13.7848 9.63121 14.7071 8.29944 15.0582 6.5446C15.154 6.07208 15.2029 5.59124 15.204 5.1091C15.2019 5.01822 15.2072 4.92733 15.2199 4.83731C15.2566 4.62033 15.411 4.49169 15.6072 4.50482C15.6988 4.51064 15.7847 4.55154 15.847 4.61903C15.9092 4.68652 15.9431 4.7754 15.9415 4.86721C15.9505 5.19064 15.9596 5.51407 15.9949 5.83613C16.1263 7.04333 16.4864 8.15902 17.2882 9.10258C18.1353 10.0991 19.2324 10.6518 20.4903 10.9204C20.8589 10.9991 21.2335 11.0461 21.6101 11.0608C21.89 11.0708 22.0662 11.2289 22.068 11.4599Z" fill="#F9FAFB"/>
<path id="Vector_2" d="M4.78185 19.9987C4.55536 19.9987 4.41086 19.8597 4.39546 19.5784C4.38608 19.2626 4.35307 18.9479 4.29671 18.6371C4.0059 17.2238 2.91104 16.4025 1.53625 16.2816C1.4453 16.2782 1.35459 16.2702 1.26446 16.2576C1.03299 16.2123 0.923364 16.0818 0.931971 15.873C0.940578 15.6642 1.06787 15.5477 1.3084 15.5355C1.69314 15.52 2.07323 15.4456 2.43541 15.3149C3.52257 14.9072 4.1282 14.1055 4.33159 12.9784C4.36771 12.7403 4.38739 12.4999 4.39048 12.2591C4.39682 12.1146 4.41902 11.9715 4.54902 11.8759C4.59855 11.834 4.65916 11.8075 4.72349 11.7995C4.78782 11.7914 4.8531 11.8022 4.91141 11.8306C5.06678 11.9031 5.12748 12.0344 5.12974 12.1966C5.129 12.5815 5.17957 12.9648 5.28013 13.3363C5.62168 14.5394 6.55708 15.3389 7.80052 15.4916C7.9423 15.5088 8.08499 15.5219 8.22722 15.5369C8.45371 15.5582 8.60954 15.7049 8.61135 15.9047C8.61135 16.1162 8.45507 16.2748 8.21771 16.2861C7.73846 16.3097 7.2737 16.4002 6.83839 16.6032C5.7535 17.1083 5.24616 18.0038 5.13201 19.1584C5.11298 19.3532 5.11026 19.5498 5.08671 19.7432C5.06134 19.8995 4.97392 20.0051 4.78185 19.9987Z" fill="#F9FAFB"/>
<path id="Vector_3" d="M7.78647 0.000139812C7.99077 0.00602856 8.133 0.168649 8.14659 0.443608C8.16154 0.752088 8.1783 1.05876 8.24444 1.36225C8.52121 2.63377 9.4856 3.52071 10.7838 3.68967C10.9329 3.70915 11.0833 3.72047 11.2328 3.73497C11.4715 3.75943 11.6092 3.89532 11.6087 4.1046C11.6087 4.33607 11.476 4.46698 11.2246 4.4842C10.5112 4.52949 9.84119 4.70525 9.265 5.15053C8.60048 5.66376 8.27343 6.36361 8.16245 7.17898C8.13344 7.38768 8.11711 7.59794 8.11353 7.80862C8.1099 8.06093 7.99349 8.1932 7.79644 8.19637C7.56316 8.20045 7.4173 8.05368 7.41095 7.79231C7.40008 7.33073 7.34527 6.87639 7.19533 6.43835C6.78086 5.22754 5.74942 4.60333 4.55989 4.48465C4.4693 4.47604 4.3787 4.48057 4.28811 4.46653C4.06388 4.43165 3.92799 4.28805 3.92934 4.09735C3.92934 3.89894 4.08155 3.74901 4.31891 3.73859C4.65768 3.72514 4.99299 3.66524 5.31547 3.56057C6.54848 3.15741 7.19035 2.27999 7.36384 1.02705C7.39374 0.811428 7.39646 0.592185 7.41367 0.374755C7.43043 0.148264 7.58535 -0.00529596 7.78647 0.000139812Z" fill="#F9FAFB"/>
</g>
<defs>
<clipPath id="clip0_10419_133914">
<rect width="21.137" height="20" fill="none" transform="translate(0.931519)"/>
</clipPath>
</defs>
</svg>
