<svg width="20" height="20" viewBox="0 0 20 20" fill="none" xmlns="http://www.w3.org/2000/svg">
<g id="maximize-2">
<path id="Icon" fill-rule="evenodd" clip-rule="evenodd" d="M12.5001 3.33268C12.0398 3.33268 11.6667 2.95959 11.6667 2.49935C11.6667 2.03911 12.0398 1.66602 12.5001 1.66602H17.5001C17.9603 1.66602 18.3334 2.03911 18.3334 2.49935V7.49935C18.3334 7.95959 17.9603 8.33268 17.5001 8.33268C17.0398 8.33268 16.6667 7.95959 16.6667 7.49935V4.51119L12.256 8.92194C11.9306 9.24738 11.4029 9.24738 11.0775 8.92194C10.7521 8.5965 10.7521 8.06886 11.0775 7.74343L15.4882 3.33268H12.5001ZM7.74416 11.0768C8.0696 10.7513 8.59723 10.7513 8.92267 11.0768C9.24811 11.4022 9.24811 11.9298 8.92267 12.2553L4.51193 16.666H7.50008C7.96032 16.666 8.33342 17.0391 8.33342 17.4993C8.33342 17.9596 7.96032 18.3327 7.50008 18.3327H2.50008C2.03984 18.3327 1.66675 17.9596 1.66675 17.4993V12.4993C1.66675 12.0391 2.03984 11.666 2.50008 11.666C2.96032 11.666 3.33341 12.0391 3.33341 12.4993V15.4875L7.74416 11.0768Z" fill="#F9FAFB"/>
</g>
</svg>
