<svg xmlns="http://www.w3.org/2000/svg" width="24" height="25" viewBox="0 0 24 25" fill="none">
<path d="M19 8.32935H17.75V5.41235C17.75 3.45335 16.626 2.32935 14.667 2.32935H5.33301C3.37401 2.32935 2.25 3.45335 2.25 5.41235V17.0793C2.25 17.3823 2.43289 17.6563 2.71289 17.7723C2.80589 17.8113 2.903 17.8293 3 17.8293C3.195 17.8293 3.38703 17.7534 3.53003 17.6094L5.64307 15.4954H8.24902V17.0793C8.24902 18.8273 9.25102 19.8293 10.999 19.8293H18.688L20.468 21.6094C20.612 21.7534 20.803 21.8293 20.998 21.8293C21.095 21.8293 21.1919 21.8103 21.2849 21.7723C21.5649 21.6563 21.748 21.3823 21.748 21.0793V11.0793C21.75 9.33135 20.748 8.32935 19 8.32935ZM5.33301 13.9963C5.13401 13.9963 4.94298 14.0753 4.80298 14.2163L3.75 15.2693V5.41431C3.75 4.27431 4.19301 3.8313 5.33301 3.8313H14.667C15.807 3.8313 16.25 4.27531 16.25 5.41431V12.4143C16.25 13.5533 15.807 13.9973 14.667 13.9973H5.33301V13.9963ZM20.25 19.2683L19.53 18.5483C19.389 18.4073 19.199 18.3284 19 18.3284H11C10.089 18.3284 9.75 17.9894 9.75 17.0784V15.4954H14.667C16.626 15.4954 17.75 14.3714 17.75 12.4124V9.82935H19C19.911 9.82935 20.25 10.1683 20.25 11.0793V19.2683ZM11.02 9.07935C11.02 9.63135 10.573 10.0793 10.02 10.0793C9.46802 10.0793 9.01489 9.63135 9.01489 9.07935C9.01489 8.52735 9.45801 8.07935 10.01 8.07935H10.02C10.572 8.07935 11.02 8.52735 11.02 9.07935ZM14.02 9.07935C14.02 9.63135 13.573 10.0793 13.02 10.0793C12.468 10.0793 12.0149 9.63135 12.0149 9.07935C12.0149 8.52735 12.458 8.07935 13.01 8.07935H13.02C13.572 8.07935 14.02 8.52735 14.02 9.07935ZM8.02002 9.07935C8.02002 9.63135 7.57302 10.0793 7.02002 10.0793C6.46802 10.0793 6.01489 9.63135 6.01489 9.07935C6.01489 8.52735 6.45801 8.07935 7.01001 8.07935H7.02002C7.57202 8.07935 8.02002 8.52735 8.02002 9.07935Z" fill="#9CA3AF"/>
</svg>