<svg width="20" height="20" viewBox="0 0 20 20" fill="none" xmlns="http://www.w3.org/2000/svg">
<g id="sliders-horizontal-alt">
<path id="sliders-horizontal-alt_2" d="M7.91667 5.83464C7.91667 7.44297 6.60833 8.7513 5 8.7513C3.39167 8.7513 2.08333 7.44297 2.08333 5.83464C2.08333 4.2263 3.39167 2.91797 5 2.91797C6.60833 2.91797 7.91667 4.2263 7.91667 5.83464ZM15 11.2513C13.3917 11.2513 12.0833 12.5596 12.0833 14.168C12.0833 15.7763 13.3917 17.0846 15 17.0846C16.6083 17.0846 17.9167 15.7763 17.9167 14.168C17.9167 12.5596 16.6083 11.2513 15 11.2513ZM18.125 5.83464C18.125 5.48964 17.845 5.20964 17.5 5.20964H12.5C12.155 5.20964 11.875 5.48964 11.875 5.83464C11.875 6.17964 12.155 6.45964 12.5 6.45964H17.5C17.845 6.45964 18.125 6.17964 18.125 5.83464ZM8.125 14.168C8.125 13.823 7.845 13.543 7.5 13.543H2.5C2.155 13.543 1.875 13.823 1.875 14.168C1.875 14.513 2.155 14.793 2.5 14.793H7.5C7.845 14.793 8.125 14.513 8.125 14.168Z" fill="#121125"/>
</g>
</svg>
