<svg width="20" height="20" viewBox="0 0 20 20" fill="none" xmlns="http://www.w3.org/2000/svg">
<g id="Group 126113">
<g id="icon">
<path id="doc" fill-rule="evenodd" clip-rule="evenodd" d="M5 1.74603V18.254C5 19.2183 5.76951 20 6.71875 20H18.2812C19.2305 20 20 19.2183 20 18.254V4.59454C20 4.12814 19.8163 3.68112 19.4899 3.35314L16.6549 0.504633C16.3331 0.181331 15.8988 0 15.4463 0H6.71875C5.76951 0 5 0.781725 5 1.74603ZM6.09375 18.254V1.74603C6.09375 1.39537 6.37357 1.11111 6.71875 1.11111H15.2344V4.92064C15.2344 5.57812 15.759 6.11111 16.4062 6.11111H18.9062V18.254C18.9062 18.6046 18.6264 18.8889 18.2812 18.8889H6.71875C6.37357 18.8889 6.09375 18.6046 6.09375 18.254ZM18.9062 5V4.59454C18.9062 4.42494 18.8395 4.26239 18.7208 4.14312L16.3281 1.73909V4.92064C16.3281 4.96447 16.3631 5 16.4062 5H18.9062Z" fill="#9D9C9B"/>
</g>
<path id="box" d="M0 5.78125C0 5.26348 0.419733 4.84375 0.9375 4.84375H10.3125C10.8303 4.84375 11.25 5.26348 11.25 5.78125V15.1562C11.25 15.674 10.8303 16.0938 10.3125 16.0938H0.9375C0.419733 16.0938 0 15.674 0 15.1562V5.78125Z" fill="#3770C3"/>
<path id="W" d="M3.4137 13.4509L2.1875 7.1875H3.25134L4.02039 11.4899L4.96033 7.1875H6.19507L7.09656 11.5625L7.88696 7.1875H8.92944L7.68188 13.4509H6.57959L5.5542 8.76831L4.53735 13.4509H3.4137Z" fill="white"/>
<path id="arrow-down-to-line" d="M12.6506 13.3365C12.4498 13.1329 12.4498 12.8038 12.6506 12.6002C12.8513 12.3966 13.1758 12.3966 13.3765 12.6002L15.0671 14.3149V10.091C15.0671 9.8036 15.2966 9.57031 15.5805 9.57031C15.8644 9.57031 16.0939 9.8036 16.0939 10.091V14.3149L17.7845 12.6002C17.9852 12.3966 18.3097 12.3966 18.5105 12.6002C18.7112 12.8038 18.7112 13.1329 18.5105 13.3365L15.944 15.9397C15.8962 15.9881 15.8398 16.0261 15.7767 16.0527C15.714 16.0792 15.6472 16.0927 15.5805 16.0927C15.5138 16.0927 15.447 16.0787 15.3843 16.0527C15.3212 16.0261 15.2648 15.9881 15.217 15.9397L12.6506 13.3365Z" fill="#3770C3"/>
</g>
</svg>
