<svg xmlns="http://www.w3.org/2000/svg" width="28" height="28" viewBox="0 0 28 28" fill="none">
<path d="M20.4167 2.33325C18.8052 2.33325 17.5 3.63846 17.5 5.24992C17.5 6.86138 18.8052 8.16658 20.4167 8.16658C22.0281 8.16658 23.3333 6.86138 23.3333 5.24992C23.3333 3.63846 22.0281 2.33325 20.4167 2.33325Z" fill="#DC2626"/>
<path d="M16.5282 23.6272C15.9962 24.5384 15.0535 25.0832 14.0059 25.0832C12.9582 25.0832 12.0144 24.5384 11.4835 23.6272C11.3785 23.4464 11.3785 23.2235 11.4824 23.0427C11.5862 22.8619 11.7787 22.7499 11.9887 22.7499H16.0253C16.2342 22.7499 16.4267 22.8619 16.5317 23.0427C16.6367 23.2235 16.6332 23.4475 16.5282 23.6272ZM23.8 20.6382C23.7767 20.6032 21.5834 17.8265 21.5834 14.5832V10.4999C21.5834 10.3412 21.5775 10.186 21.5682 10.0309C21.5577 9.86754 21.448 9.7812 21.4014 9.74853C21.3594 9.71937 21.2485 9.66453 21.105 9.71236C20.7154 9.84303 20.2977 9.91302 19.8625 9.91535C17.878 9.92935 16.0919 8.43487 15.7979 6.47253C15.6497 5.47853 15.8515 4.5382 16.3229 3.75886C16.4442 3.5582 16.3684 3.29103 16.1444 3.22569C14.9357 2.86986 13.5905 2.80102 12.2197 3.12652C8.76402 3.94785 6.42835 7.19703 6.42835 10.7495V14.5832C6.42835 17.8265 4.23502 20.6032 4.21169 20.6382C4.07169 20.8132 4.04836 21.0465 4.14169 21.2565C4.24669 21.4549 4.44502 21.5832 4.66669 21.5832H23.3334C23.5667 21.5832 23.765 21.4549 23.87 21.2565C23.9634 21.0465 23.94 20.8132 23.8 20.6382Z" fill="#D1D5DB"/>
</svg>